<svg xmlns="http://www.w3.org/2000/svg" viewBox="0 0 520 230" role="img" aria-labelledby="title description">
  <title id="title">ACE</title>
  <desc id="description">Automated Commercial Environment, U.S. Customs and Border Protection</desc>
  <rect width="520" height="230" rx="18" fill="#fff"/>
  <g transform="translate(38 36)">
    <circle cx="79" cy="79" r="74" fill="#102f5f"/>
    <circle cx="79" cy="79" r="62" fill="#fff"/>
    <path d="M31 58h96v14H31zm0 28h96v14H31zm0 28h96v14H31z" fill="#d8292f"/>
    <path d="M31 30h53v56H31z" fill="#174a8b"/>
    <g fill="#fff">
      <circle cx="43" cy="43" r="3"/><circle cx="57" cy="43" r="3"/><circle cx="71" cy="43" r="3"/>
      <circle cx="50" cy="56" r="3"/><circle cx="64" cy="56" r="3"/><circle cx="78" cy="56" r="3"/>
      <circle cx="43" cy="69" r="3"/><circle cx="57" cy="69" r="3"/><circle cx="71" cy="69" r="3"/>
    </g>
  </g>
  <text x="195" y="100" fill="#d8292f" font-family="Arial, Helvetica, sans-serif" font-size="78" font-weight="800" letter-spacing="-4">ACE</text>
  <text x="198" y="132" fill="#102f5f" font-family="Arial, Helvetica, sans-serif" font-size="18" font-weight="700" letter-spacing="1.5">AUTOMATED COMMERCIAL</text>
  <text x="198" y="156" fill="#102f5f" font-family="Arial, Helvetica, sans-serif" font-size="18" font-weight="700" letter-spacing="1.5">ENVIRONMENT</text>
  <text x="198" y="187" fill="#5a6573" font-family="Arial, Helvetica, sans-serif" font-size="13" font-weight="600">U.S. CUSTOMS AND BORDER PROTECTION</text>
</svg>
